<svg id="Group_103" data-name="Group 103" xmlns="http://www.w3.org/2000/svg" width="25.834" height="25.835" viewBox="0 0 25.834 25.835">
  <path id="Path_504" data-name="Path 504" d="M287.834,124.917a12.873,12.873,0,0,1-1.04,5.087l-.043.1a12.939,12.939,0,0,1-14.076,7.538l-.232-.043a12.8,12.8,0,0,1-2.337-.689q-.184-.074-.365-.153c-.083-.036-.165-.073-.247-.111a12.919,12.919,0,1,1,18.34-11.727Z" transform="translate(-262 -112)" fill="#0e71eb"/>
  <path id="Path_505" data-name="Path 505" d="M403.373,345.723l-.232-.043a53.112,53.112,0,0,0-.814-7.616A28.254,28.254,0,0,0,400.933,333a15.773,15.773,0,0,0-.729-1.6,8.293,8.293,0,0,0-2.314-2.862l.136-.186a7.993,7.993,0,0,1,2.072,2.372q.276.457.53.976.272.555.519,1.178.158.4.3.821a29.792,29.792,0,0,1,1.088,4.2q.1.522.189,1.069A54.2,54.2,0,0,1,403.373,345.723Z" transform="translate(-392.697 -320.082)" opacity="0.2"/>
  <path id="Path_506" data-name="Path 506" d="M403.968,601.008c-.083-.036-.165-.073-.247-.111a18.76,18.76,0,0,0-.495-2.965,9.73,9.73,0,0,0-.451-1.345,4.037,4.037,0,0,0-1.215-1.7l.136-.185a4.223,4.223,0,0,1,1.27,1.74,11.939,11.939,0,0,1,.761,2.682C403.846,599.8,403.921,600.451,403.968,601.008Z" transform="translate(-396.227 -576.253)" opacity="0.2"/>
  <circle id="Ellipse_87" data-name="Ellipse 87" cx="1.15" cy="1.15" r="1.15" transform="translate(2.758 6.149)" opacity="0.2"/>
  <circle id="Ellipse_88" data-name="Ellipse 88" cx="1.15" cy="1.15" r="1.15" transform="translate(3.128 16.047)" opacity="0.2"/>
  <path id="Path_507" data-name="Path 507" d="M482.119,294.116a5.108,5.108,0,0,0,.294,2.621,4.655,4.655,0,0,0,.883-4.982A5.108,5.108,0,0,0,482.119,294.116Z" transform="translate(-473.646 -284.886)" opacity="0.2"/>
  <path id="Path_508" data-name="Path 508" d="M330.338,397.121a5.133,5.133,0,0,0,2.631.172,4.683,4.683,0,0,0-4.752-1.738A5.133,5.133,0,0,0,330.338,397.121Z" transform="translate(-325.686 -384.625)" opacity="0.2"/>
  <path id="Path_509" data-name="Path 509" d="M340.513,638.856a.964.964,0,1,0-1.485-1.1A3.58,3.58,0,0,0,340.513,638.856Z" transform="translate(-336.084 -617.595)" opacity="0.2"/>
  <circle id="Ellipse_89" data-name="Ellipse 89" cx="5.036" cy="5.036" r="5.036" transform="translate(7.855 5.706)" fill="#d0cde1"/>
  <path id="Path_510" data-name="Path 510" d="M547.833,454.361s.63,2.99.63,3.3,2.99,1.731,2.99,1.731l2.675-.472.944-2.833s-1.574-2.361-1.574-3.3Z" transform="translate(-536.909 -439.763)" fill="#d0cde1"/>
  <path id="Path_511" data-name="Path 511" d="M407.248,519.8l-.043.1a12.939,12.939,0,0,1-14.076,7.538l-.232-.043a12.8,12.8,0,0,1-2.337-.689q-.184-.074-.365-.153c-.083-.036-.165-.073-.247-.111a12.906,12.906,0,0,1-2.111-1.234l-.6-1.732.336-.256.69-.527.736-.562.191-.146,2.89-2.206.213-.163,1.5-1.147h0s1.624,2.647,3.985,1.86a3.255,3.255,0,0,0,2.309-3.043Z" transform="translate(-382.454 -501.792)" fill="#2f2e41"/>
  <path id="Path_512" data-name="Path 512" d="M455.229,216.839s1.6-3.464,4.663-2.665,4.8,2,4.93,3.2a17.107,17.107,0,0,1-.067,3s-.333-2.465-2.465-1.932a19.015,19.015,0,0,1-5.463.133l-.533,4.8s-.6-.866-1.266-.333S453.1,217.9,455.229,216.839Z" transform="translate(-446.705 -210.154)" fill="#2f2e41"/>
  <path id="Path_513" data-name="Path 513" d="M374.48,682.5q-.184-.074-.365-.153c-.083-.036-.165-.073-.247-.111a12.95,12.95,0,0,1-3.347-2.243,4.526,4.526,0,0,1,.639-.722h2.361l.354,1.19Z" transform="translate(-366.373 -657.591)" fill="#2f2e41"/>
  <path id="Path_514" data-name="Path 514" d="M853.044,576.32l2.025.358a12.913,12.913,0,0,1-2.169,3.385Z" transform="translate(-830.318 -558.575)" fill="#2f2e41"/>
</svg>
