<svg xmlns="http://www.w3.org/2000/svg" width="18.865" height="21.559" viewBox="0 0 18.865 21.559">
  <path id="Icon_awesome-copy" data-name="Icon awesome-copy" d="M13.475,18.865v1.684a1.011,1.011,0,0,1-1.011,1.011H1.011A1.011,1.011,0,0,1,0,20.549V5.053A1.011,1.011,0,0,1,1.011,4.042H4.042V16.506A2.361,2.361,0,0,0,6.4,18.865Zm0-14.485V0H6.4A1.011,1.011,0,0,0,5.39,1.011v15.5A1.011,1.011,0,0,0,6.4,17.517H17.854a1.011,1.011,0,0,0,1.011-1.011V5.39H14.485A1.014,1.014,0,0,1,13.475,4.379Zm5.094-1.307L15.792.3a1.011,1.011,0,0,0-.715-.3h-.255V4.042h4.042V3.787a1.011,1.011,0,0,0-.3-.715Z" fill="#fff"/>
</svg>
