<svg xmlns="http://www.w3.org/2000/svg" width="85.892" height="77.235" viewBox="0 0 85.892 77.235">
  <g id="Group_4" data-name="Group 4" transform="translate(0.5 0.53)">
    <path id="Path_166" data-name="Path 166" d="M404.253,223.3a.148.148,0,0,1-.085-.027l-41.189-28.685a.747.747,0,0,0-.853,0l-40.892,28.683a.149.149,0,0,1-.171-.244l40.892-28.683a1.046,1.046,0,0,1,1.194,0l41.189,28.685a.149.149,0,0,1-.085.271Z" transform="translate(-320.106 -194.163)" fill="#3f3d56" stroke="#4e4e4e" stroke-width="1"/>
    <path id="Path_167" data-name="Path 167" d="M23.264,37.239,62.286,8.319,101.6,39.3,64.3,61.413,44.042,56.8Z" transform="translate(-19.799 -7.08)" fill="#e6e6e6"/>
    <path id="Path_168" data-name="Path 168" d="M373.946,640.411H354.668a.9.9,0,1,1,0-1.8h19.278a.9.9,0,1,1,0,1.8Z" transform="translate(-347.994 -572.417)" fill="#6c63ff"/>
    <path id="Path_169" data-name="Path 169" d="M361.585,614.411h-6.917a.9.9,0,1,1,0-1.8h6.916a.9.9,0,1,1,0,1.8Z" transform="translate(-347.994 -550.289)" fill="#6c63ff"/>
    <path id="Path_170" data-name="Path 170" d="M463.993,262.706a1.127,1.127,0,0,1-.427-.084L439.5,252.637V221.38a1.044,1.044,0,0,1,1.043-1.043h46.169a1.044,1.044,0,0,1,1.043,1.043v31.279l-.045.019-23.275,9.94A1.134,1.134,0,0,1,463.993,262.706Z" transform="translate(-420.958 -216.439)" fill="#fff"/>
    <path id="Path_171" data-name="Path 171" d="M463.568,262.355a1.2,1.2,0,0,1-.456-.089L439,252.261V220.954a1.118,1.118,0,0,1,1.117-1.117h46.169a1.118,1.118,0,0,1,1.117,1.117v31.328l-23.366,9.978A1.207,1.207,0,0,1,463.568,262.355ZM439.3,252.062l23.928,9.929a.911.911,0,0,0,.7,0l23.184-9.9V220.954a.82.82,0,0,0-.819-.819H440.117a.82.82,0,0,0-.819.819Z" transform="translate(-420.532 -216.014)" fill="#3f3d56"/>
    <path id="Path_172" data-name="Path 172" d="M398.849,387.837h-.03l-17.1,7.3-23.393,9.989a.755.755,0,0,1-.578,0l-24.134-10.013L316.1,387.849l-.027-.012h-.03A1.044,1.044,0,0,0,315,388.88v45.276a1.044,1.044,0,0,0,1.043,1.043h82.807a1.044,1.044,0,0,0,1.043-1.043V388.88A1.044,1.044,0,0,0,398.849,387.837Zm.745,46.318a.745.745,0,0,1-.745.745H316.043a.745.745,0,0,1-.745-.745V388.88a.746.746,0,0,1,.716-.745l17.6,7.3,24.02,9.967a1.061,1.061,0,0,0,.81,0l23.275-9.94,17.157-7.326a.747.747,0,0,1,.715.745Z" transform="translate(-315 -358.993)" fill="#3f3d56" stroke="#4e4e4e" stroke-width="1"/>
    <path id="Path_173" data-name="Path 173" d="M525.748,273.689a4.1,4.1,0,0,1-2.464-.819l-.044-.033-9.28-7.105a4.123,4.123,0,0,1,5.015-6.545l6.011,4.609,14.2-18.525a4.123,4.123,0,0,1,5.781-.763l-.088.12.091-.118a4.128,4.128,0,0,1,.763,5.781l-16.708,21.79A4.125,4.125,0,0,1,525.748,273.689Z" transform="translate(-482.953 -236.285)" fill="#6c63ff"/>
  </g>
</svg>
