<svg id="Component_53_5" data-name="Component 53 – 5" xmlns="http://www.w3.org/2000/svg" width="42" height="42" viewBox="0 0 42 42">
  <path id="Path_204" data-name="Path 204" d="M957.75,373.407h0a21,21,0,0,1-21-21h0a21,21,0,0,1,21-21h0a21,21,0,0,1,21,21h0A21,21,0,0,1,957.75,373.407Z" transform="translate(-936.75 -331.407)" fill="#0e71eb"/>
  <g id="Group_129" data-name="Group 129" transform="translate(15.521 9.447)">
    <path id="Path_237" data-name="Path 237" d="M970.656,357.229h-3.293v11.8h-4.912v-11.8H960.13v-4.157h2.321v-2.7a5.842,5.842,0,0,1,.378-2.132,4.143,4.143,0,0,1,1.485-1.97,5.182,5.182,0,0,1,3.077-.864l3.644.027v4.049h-2.645a1.046,1.046,0,0,0-.675.216,1.136,1.136,0,0,0-.351.918v2.456h3.725Z" transform="translate(-960.13 -345.407)" fill="#fff"/>
  </g>
</svg>
