<svg id="Component_55_1" data-name="Component 55 – 1" xmlns="http://www.w3.org/2000/svg" width="42" height="42" viewBox="0 0 42 42">
  <path id="Path_192" data-name="Path 192" d="M1030.25,518.259h0a21,21,0,0,1-21-21h0a21,21,0,0,1,21-21h0a21,21,0,0,1,21,21h0A21,21,0,0,1,1030.25,518.259Z" transform="translate(-1009.25 -476.259)" fill="#0e71eb"/>
  <path id="Path_250" data-name="Path 250" d="M1035.493,498.539l-2,1.895a4.172,4.172,0,0,0-1.131-.763,4.467,4.467,0,0,0-4.066.263,4.725,4.725,0,0,0-1.658,1.7,4.647,4.647,0,0,0,0,4.632,4.615,4.615,0,0,0,1.658,1.684,4.37,4.37,0,0,0,2.276.618,4.451,4.451,0,0,0,2.316-.579,3.707,3.707,0,0,0,1.316-1.289,3.255,3.255,0,0,0,.526-1.289h-4.158v-2.526h6.921a5.069,5.069,0,0,1,.105,1.237,7.609,7.609,0,0,1-.882,3.7,6.434,6.434,0,0,1-2.474,2.539,7.566,7.566,0,0,1-7.355-.066,7.309,7.309,0,0,1-2.658-2.645,7.215,7.215,0,0,1-1-3.71,7.08,7.08,0,0,1,1-3.684,7.31,7.31,0,0,1,2.658-2.645,7.155,7.155,0,0,1,3.684-.987A7.021,7.021,0,0,1,1035.493,498.539Zm8.684,2.263v2.079h2.1v2.1h-2.1v2.079h-2.105v-2.079h-2.079v-2.1h2.079V500.8h2.105Z" transform="translate(-1013.756 -482.691)" fill="#fff"/>
</svg>
