<svg xmlns="http://www.w3.org/2000/svg" xmlns:xlink="http://www.w3.org/1999/xlink" width="621.072" height="595.712" viewBox="0 0 621.072 595.712">
  <defs>
    <linearGradient id="linear-gradient" x1="0.5" y1="1" x2="0.5" gradientUnits="objectBoundingBox">
      <stop offset="0" stop-color="gray" stop-opacity="0.251"/>
      <stop offset="0.54" stop-color="gray" stop-opacity="0.122"/>
      <stop offset="1" stop-color="gray" stop-opacity="0.102"/>
    </linearGradient>
  </defs>
  <g id="Group_206" data-name="Group 206" transform="translate(-673.928 -172.288)">
    <g id="Group_34" data-name="Group 34" transform="translate(869.733 172.288)">
      <path id="Path_372" data-name="Path 372" d="M478.484,429.1H476.4a7.061,7.061,0,0,1-7.053-7.053V420.3a21.58,21.58,0,0,1,2.445-10.8,56.823,56.823,0,0,1,6.845-9.2,40.538,40.538,0,0,0,4.654-5.61,9.437,9.437,0,0,0,1.47-5.219c0-4.354-2.837-6.471-8.673-6.471a35.216,35.216,0,0,0-9.56,1.435,8.048,8.048,0,0,1-10.257-7.738v-3.548a7.894,7.894,0,0,1,4.657-7.235,46.206,46.206,0,0,1,34.121-.3,27.051,27.051,0,0,1,11.468,8.691,20.932,20.932,0,0,1,4.113,12.686,20.633,20.633,0,0,1-3.977,12.688,72.532,72.532,0,0,1-11.121,11.331,79.249,79.249,0,0,0-7.13,6.717,12.4,12.4,0,0,0-2.964,5.519,7.034,7.034,0,0,1-6.951,5.858Z" transform="translate(-421.875 -318.56)" fill="#e5e4f4"/>
      <path id="Path_373" data-name="Path 373" d="M483.737,523.553h-.275a13.072,13.072,0,0,1,0-26.145h.275a13.072,13.072,0,1,1,0,26.145Z" transform="translate(-428.29 -379.841)" fill="#e5e4f4"/>
      <path id="Path_376" data-name="Path 376" d="M732.58,414.648H718.39a2.732,2.732,0,0,1-2.729-2.729v-14.19A2.732,2.732,0,0,1,718.39,395H732.58a2.732,2.732,0,0,1,2.729,2.729v14.19a2.732,2.732,0,0,1-2.729,2.729Zm-14.19-18.557a1.639,1.639,0,0,0-1.637,1.637v14.19a1.639,1.639,0,0,0,1.637,1.637h14.19a1.639,1.639,0,0,0,1.637-1.637v-14.19a1.639,1.639,0,0,0-1.637-1.637Z" transform="translate(-539.695 -333.326)" fill="#e1e6ed"/>
      <path id="Path_377" data-name="Path 377" d="M744.58,397.648H730.39a2.732,2.732,0,0,1-2.729-2.729v-14.19A2.732,2.732,0,0,1,730.39,378H744.58a2.732,2.732,0,0,1,2.729,2.729v14.19a2.732,2.732,0,0,1-2.729,2.729ZM730.39,379.092a1.639,1.639,0,0,0-1.637,1.637v14.19a1.639,1.639,0,0,0,1.637,1.637H744.58a1.639,1.639,0,0,0,1.637-1.637v-14.19a1.639,1.639,0,0,0-1.637-1.637Z" transform="translate(-545.145 -325.604)" fill="#e5e4f4"/>
      <path id="Path_378" data-name="Path 378" d="M539.58,314.648H525.39a2.732,2.732,0,0,1-2.729-2.729V297.729A2.732,2.732,0,0,1,525.39,295h14.19a2.732,2.732,0,0,1,2.729,2.729v14.191a2.732,2.732,0,0,1-2.729,2.729Zm-14.19-18.557a1.639,1.639,0,0,0-1.637,1.637v14.19a1.639,1.639,0,0,0,1.637,1.637h14.19a1.639,1.639,0,0,0,1.637-1.637V297.729a1.639,1.639,0,0,0-1.637-1.637Z" transform="translate(-452.032 -287.905)" fill="#f2f2f2"/>
      <path id="Path_379" data-name="Path 379" d="M523.58,301.648H509.39a2.732,2.732,0,0,1-2.729-2.729V284.729A2.732,2.732,0,0,1,509.39,282h14.19a2.732,2.732,0,0,1,2.729,2.729v14.191a2.732,2.732,0,0,1-2.729,2.729Zm-14.19-18.557a1.639,1.639,0,0,0-1.637,1.637v14.19a1.639,1.639,0,0,0,1.637,1.637h14.19a1.639,1.639,0,0,0,1.637-1.637V284.729a1.639,1.639,0,0,0-1.637-1.637Z" transform="translate(-444.765 -282)" fill="#f2f2f2"/>
      <ellipse id="Ellipse_71" data-name="Ellipse 71" cx="3.53" cy="3.53" rx="3.53" ry="3.53" transform="translate(0 83.889)" fill="#f2f2f2"/>
      <ellipse id="Ellipse_72" data-name="Ellipse 72" cx="3.53" cy="3.53" rx="3.53" ry="3.53" transform="translate(237.964 114.454)" fill="#f2f2f2"/>
      <path id="Path_380" data-name="Path 380" d="M469.005,400.684h-1.2a4.049,4.049,0,0,1-4.044-4.044v-1a12.373,12.373,0,0,1,1.4-6.194,32.584,32.584,0,0,1,3.925-5.273,23.243,23.243,0,0,0,2.669-3.216,5.411,5.411,0,0,0,.843-2.992c0-2.5-1.626-3.71-4.973-3.71a20.191,20.191,0,0,0-5.481.823,4.614,4.614,0,0,1-5.881-4.437V368.6a4.526,4.526,0,0,1,2.67-4.148,26.492,26.492,0,0,1,19.563-.171,15.509,15.509,0,0,1,6.575,4.983,12,12,0,0,1,2.358,7.274,11.83,11.83,0,0,1-2.28,7.274,41.582,41.582,0,0,1-6.376,6.5,45.443,45.443,0,0,0-4.088,3.851,7.11,7.11,0,0,0-1.7,3.164,4.033,4.033,0,0,1-3.985,3.359Z" transform="translate(-359.876 -348.202)" fill="#e5e4f4"/>
      <path id="Path_382" data-name="Path 382" d="M464.754,387.935h-.8a2.7,2.7,0,0,1-2.694-2.694v-.669a8.243,8.243,0,0,1,.934-4.126,21.709,21.709,0,0,1,2.615-3.513,15.485,15.485,0,0,0,1.778-2.143,3.6,3.6,0,0,0,.561-1.994c0-1.663-1.084-2.472-3.313-2.472a13.452,13.452,0,0,0-3.651.548,3.074,3.074,0,0,1-3.918-2.956v-1.355a3.015,3.015,0,0,1,1.779-2.764,17.649,17.649,0,0,1,13.033-.114,10.332,10.332,0,0,1,4.38,3.32,8,8,0,0,1,1.571,4.846,7.881,7.881,0,0,1-1.519,4.846,27.7,27.7,0,0,1-4.248,4.328,30.268,30.268,0,0,0-2.723,2.566,4.737,4.737,0,0,0-1.132,2.108A2.687,2.687,0,0,1,464.754,387.935Z" transform="translate(-449.209 -329.106)" fill="#e5e4f4"/>
      <path id="Path_381" data-name="Path 381" d="M478.042,512.4h-.158a7.495,7.495,0,1,1,0-14.99h.158a7.495,7.495,0,1,1,0,14.99Z" transform="translate(-369.578 -440.9)" fill="#e5e4f4"/>
      <path id="Path_383" data-name="Path 383" d="M475.488,507.4h-.105a4.993,4.993,0,0,1,0-9.986h.105a4.993,4.993,0,0,1,0,9.986Z" transform="translate(-460.387 -435.897)" fill="#e5e4f4"/>
    </g>
    <g id="Group_33" data-name="Group 33" transform="translate(673.928 308.416)">
      <g id="Group_32" data-name="Group 32" transform="translate(473.779 270.227)" opacity="0.1">
        <path id="Path_291" data-name="Path 291" d="M911.88,619.166s-44.337-5.757-11.271,66c0,0,30.134-12.913,31.334-42.039a23.176,23.176,0,0,0-19.434-23.872Z" transform="translate(-888.357 -563.789)" fill="#6c63ff"/>
        <path id="Path_292" data-name="Path 292" d="M921.948,619.06s10.037,40.012-11.888,66.115" transform="translate(-897.774 -563.791)" fill="none" stroke="#535461" stroke-miterlimit="10" stroke-width="1"/>
        <path id="Path_293" data-name="Path 293" d="M909,665.211s15.964-39.344,45.775-53.938a64.337,64.337,0,0,0,29.216-28.362,108.2,108.2,0,0,0,7.32-18.381" transform="translate(-897.314 -540.13)" fill="none" stroke="#535461" stroke-miterlimit="10" stroke-width="2"/>
        <path id="Path_294" data-name="Path 294" d="M1072.781,536.527c-3.108,3.906-19.191,9.624-19.191,9.624s1.936-16.983,5.044-20.861a9.058,9.058,0,1,1,14.153,11.254Z" transform="translate(-960.051 -521.428)" fill="#6c63ff"/>
        <path id="Path_295" data-name="Path 295" d="M1061.391,589.1c-4.733,1.591-21.331-2.366-21.331-2.366s10.841-13.179,15.574-14.77a9.058,9.058,0,1,1,5.757,17.136Z" transform="translate(-954.181 -543.061)" fill="#6c63ff"/>
        <path id="Path_296" data-name="Path 296" d="M1011.681,653.7c-4.885-1.013-17.221-12.811-17.221-12.811s16.009-5.9,20.9-4.891a9.058,9.058,0,0,1-3.68,17.7Z" transform="translate(-934.395 -571.09)" fill="#6c63ff"/>
        <path id="Path_297" data-name="Path 297" d="M959.21,693.388c-4.987-.175-19.14-9.714-19.14-9.714s14.786-8.537,19.774-8.356a9.058,9.058,0,0,1-.634,18.064Z" transform="translate(-910.795 -588.2)" fill="#6c63ff"/>
        <path id="Path_298" data-name="Path 298" d="M1012.63,570.723c.64,4.953,11.447,18.155,11.447,18.155s7.116-15.511,6.482-20.464a9.058,9.058,0,1,0-17.928,2.31Z" transform="translate(-942.206 -538.131)" fill="#6c63ff"/>
        <path id="Path_299" data-name="Path 299" d="M952.862,616.2c2.089,4.529,16.355,13.9,16.355,13.9s2.151-16.932.062-21.461a9.058,9.058,0,1,0-16.417,7.569Z" transform="translate(-915.872 -556.748)" fill="#6c63ff"/>
        <path id="Path_300" data-name="Path 300" d="M902.249,671.2c1.291,4.823,13.773,16.462,13.773,16.462s4.982-16.321,3.685-21.144a9.058,9.058,0,1,0-17.459,4.682Z" transform="translate(-894.175 -581.216)" fill="#6c63ff"/>
        <path id="Path_301" data-name="Path 301" d="M1072.781,536.527c-3.108,3.906-19.191,9.624-19.191,9.624s1.936-16.983,5.044-20.861a9.058,9.058,0,1,1,14.153,11.254Z" transform="translate(-960.051 -521.428)" opacity="0.25"/>
        <path id="Path_302" data-name="Path 302" d="M1061.391,589.1c-4.733,1.591-21.331-2.366-21.331-2.366s10.841-13.179,15.574-14.77a9.058,9.058,0,1,1,5.757,17.136Z" transform="translate(-954.181 -543.061)" opacity="0.25"/>
        <path id="Path_303" data-name="Path 303" d="M1011.681,653.7c-4.885-1.013-17.221-12.811-17.221-12.811s16.009-5.9,20.9-4.891a9.058,9.058,0,0,1-3.68,17.7Z" transform="translate(-934.395 -571.09)" opacity="0.25"/>
        <path id="Path_304" data-name="Path 304" d="M959.21,693.388c-4.987-.175-19.14-9.714-19.14-9.714s14.786-8.537,19.774-8.356a9.058,9.058,0,0,1-.634,18.064Z" transform="translate(-910.795 -588.2)" opacity="0.25"/>
        <path id="Path_305" data-name="Path 305" d="M1012.63,570.723c.64,4.953,11.447,18.155,11.447,18.155s7.116-15.511,6.482-20.464a9.058,9.058,0,1,0-17.928,2.31Z" transform="translate(-942.206 -538.131)" opacity="0.25"/>
        <path id="Path_306" data-name="Path 306" d="M952.862,616.2c2.089,4.529,16.355,13.9,16.355,13.9s2.151-16.932.062-21.461a9.058,9.058,0,1,0-16.417,7.569Z" transform="translate(-915.872 -556.748)" opacity="0.25"/>
        <path id="Path_307" data-name="Path 307" d="M902.249,671.2c1.291,4.823,13.773,16.462,13.773,16.462s4.982-16.321,3.685-21.144a9.058,9.058,0,1,0-17.459,4.682Z" transform="translate(-894.175 -581.216)" opacity="0.25"/>
        <path id="Path_308" data-name="Path 308" d="M946.56,696.827s15.964-39.344,45.775-53.938a64.338,64.338,0,0,0,29.2-28.367,108.193,108.193,0,0,0,7.32-18.381" transform="translate(-913.612 -553.846)" fill="none" stroke="#535461" stroke-miterlimit="10" stroke-width="2"/>
        <path id="Path_309" data-name="Path 309" d="M1110.291,568.788c-3.108,3.906-19.191,9.624-19.191,9.624s1.936-16.983,5.044-20.861A9.058,9.058,0,0,1,1110.3,568.8Z" transform="translate(-976.327 -535.8)" fill="#6c63ff"/>
        <path id="Path_310" data-name="Path 310" d="M1098.921,620.982c-4.733,1.591-21.331-2.366-21.331-2.366s10.841-13.179,15.574-14.77a9.058,9.058,0,0,1,5.757,17.136Z" transform="translate(-970.465 -557.057)" fill="#6c63ff"/>
        <path id="Path_311" data-name="Path 311" d="M1049.211,685.342c-4.885-1.013-17.221-12.811-17.221-12.811s16.009-5.9,20.9-4.891a9.058,9.058,0,0,1-3.68,17.7Z" transform="translate(-950.679 -584.819)" fill="#6c63ff"/>
        <path id="Path_312" data-name="Path 312" d="M996.73,724.982c-4.987-.175-19.14-9.714-19.14-9.714s14.787-8.525,19.774-8.35a9.058,9.058,0,0,1-.634,18.064Z" transform="translate(-927.075 -601.911)" fill="#6c63ff"/>
        <path id="Path_313" data-name="Path 313" d="M1050.151,602.363c.64,4.953,11.447,18.155,11.447,18.155s7.116-15.511,6.482-20.465a9.058,9.058,0,1,0-17.928,2.31Z" transform="translate(-958.486 -551.86)" fill="#6c63ff"/>
        <path id="Path_314" data-name="Path 314" d="M990.765,648.566c2.089,4.529,16.355,13.9,16.355,13.9s2.151-16.932.062-21.461a9.058,9.058,0,0,0-16.417,7.569Z" transform="translate(-932.528 -571.253)" fill="#6c63ff"/>
        <path id="Path_315" data-name="Path 315" d="M940.017,703.707c1.291,4.823,13.773,16.462,13.773,16.462s4.982-16.321,3.685-21.144a9.058,9.058,0,0,0-17.458,4.682Z" transform="translate(-910.697 -595.824)" fill="#6c63ff"/>
      </g>
      <path id="Path_316" data-name="Path 316" d="M63.3,474.07c9.828,42,30.632,78.315,63.511,95.915,68.328,36.576,222.427,17.713,337.436-3.963A263.357,263.357,0,0,0,614,480.427Z" transform="translate(-56.588 -230.652)" fill="#6c63ff" opacity="0.1"/>
      <path id="Path_317" data-name="Path 317" d="M678.572,89.782h-63.1a5.454,5.454,0,1,1,0-10.909h10.909a5.454,5.454,0,1,1,0-10.909h-7.79a5.454,5.454,0,1,1,0-10.909h32.936a87.153,87.153,0,0,0-25.69-7.082c-89.806-11.537-121.87-3.906-133.181,3.963a125.766,125.766,0,0,1-46.16,20.232C391.077,85.587,287.452,99.343,193.53,69.753,146.849,55.034,112.153,79.9,91.36,121.427H689.526c-.781-12.069-3.119-23.21-7.41-32.97A5.423,5.423,0,0,1,678.572,89.782Z" transform="translate(-68.763 -44.08)" fill="#4678b5" opacity="0.1"/>
      <path id="Path_318" data-name="Path 318" d="M52.8,319.2a277.989,277.989,0,0,0,2.451,73.288l554.032,20.261a260.4,260.4,0,0,0,38.495-58.7ZM271.927,371.48H261.018a5.454,5.454,0,1,1,0,10.909h-63.1a5.454,5.454,0,0,1,0-10.909h10.909a5.454,5.454,0,0,1,0-10.909h-7.79a5.454,5.454,0,1,1,0-10.909h63.1a5.454,5.454,0,1,1,0,10.909h7.79a5.454,5.454,0,1,1,0,10.909Z" transform="translate(-51.443 -163.454)" fill="#6c63ff" opacity="0.1"/>
      <path id="Path_319" data-name="Path 319" d="M673.344,181.38,68.47,196.1c-7.354,18.913-12.205,40.3-14.47,62.458H662.746a258.408,258.408,0,0,0,8.792-39.814A188.646,188.646,0,0,0,673.344,181.38ZM176.8,229.595H165.89a5.454,5.454,0,1,1,0,10.909h-63.1a5.454,5.454,0,0,1,0-10.909H113.7a5.454,5.454,0,0,1,0-10.909h-7.79a5.454,5.454,0,1,1,0-10.909h63.1a5.454,5.454,0,0,1,0,10.909h7.79a5.454,5.454,0,1,1,0,10.909Z" transform="translate(-52.552 -103.654)" fill="#6c63ff" opacity="0.1"/>
      <path id="Path_320" data-name="Path 320" d="M645.624,513.718S620.4,375.363,572.3,352.911c-40.759-19.038-84.836-31.871-97.37-35.353a54.129,54.129,0,0,0-6.459-8.429c-17.13-17.883-27.422-17.549-29.086-17.328a87.092,87.092,0,0,1-1.7-10.756c-.051-.566-.1-1.093-.147-1.653l.147-.074q-.153-1.6-.272-3.312a85.258,85.258,0,0,0,19.129-13.932c.074.243.136.487.215.736q18.517-15.653,36.27-32.155c3.4-3.176,6.963-6.623,8.118-11.1a16.293,16.293,0,0,0,.425-4.71c.153-3.4-.651-6.867-.787-10.309a11.8,11.8,0,0,1,.136-1.63c.793-5.633,4.71-10.258,7.925-14.985a70.66,70.66,0,0,0,12.018-40.454,68.5,68.5,0,0,0-2.83-20.38c-2.508-8.39-7.727-17.2-16.417-19.038-3.363-.708-6.855-.266-10.286-.487-14.2-.906-24.835-12.454-36.163-20.917A95.451,95.451,0,0,0,407.85,68.281c-5.35-.566-10.875-.606-15.964,1.093-11.43,3.8-18.37,15.551-29.381,20.38-8.141,3.589-17.549,3.006-26.041,5.7-12.641,4.019-23.369,16.983-23.652,30.3v1.727c-.142,6.731,2.264,13.586,2.457,20.476q0,.934.028,1.874c-.062,7.439-.951,14.9-3.663,21.891-1.461,3.765-3.34,8.124-3.034,11.888a7.957,7.957,0,0,0,1.879,6.227l2.734-2.412a82.682,82.682,0,0,0,28.447,78.6q.159,2.542.306,5.446c.43,8.39.77,18.913.674,30.383l-26.7,24.54-68.634,31.136s-62.769,13.258-49.251,101.44l6.454,54.753h57.306l-.13.289h85.057l.051-.289h202.37l-.04.289h7.925v-.289ZM439.885,293.2a58.831,58.831,0,0,1,4.076,11.209,45.918,45.918,0,0,1-4.4-11.82l.085.153Zm-97.268,11.322q0,1.619-.057,3.266l-.136.193a27.736,27.736,0,0,1,.192-3.487Z" transform="translate(-114.231 -54.429)" fill="url(#linear-gradient)"/>
      <path id="Path_321" data-name="Path 321" d="M563.87,430.278,552.548,538.4l-60.573,19.247s-78.688-14.719-58.308-57.176c14.5-30.2,14.1-84.174,12.658-112.818-.566-11.628-1.336-19.083-1.336-19.083s103.031-90.01,94.539-9.058c-1.642,15.675-1.738,27.931-.827,37.51C542.522,436.9,563.87,430.278,563.87,430.278Z" transform="translate(-215.826 -166.293)" fill="#fdc2cc"/>
      <path id="Path_322" data-name="Path 322" d="M563.87,430.278,552.548,538.4l-60.573,19.247s-78.688-14.719-58.308-57.176c14.5-30.2,14.1-84.174,12.658-112.818-.566-11.628-1.336-19.083-1.336-19.083s103.031-90.01,94.539-9.058c-1.642,15.675-1.738,27.931-.827,37.51C542.522,436.9,563.87,430.278,563.87,430.278Z" transform="translate(-215.826 -166.293)" opacity="0.03"/>
      <path id="Path_323" data-name="Path 323" d="M550.789,356.515c-1.642,15.675-1.738,27.931-.827,37.51a82.124,82.124,0,0,1-92.376-9.369c-.566-11.628-1.336-19.083-1.336-19.083S559.281,275.562,550.789,356.515Z" transform="translate(-227.088 -164.992)" opacity="0.1"/>
      <ellipse id="Ellipse_30" data-name="Ellipse 30" cx="82.085" cy="82.085" rx="82.085" ry="82.085" transform="translate(201.423 71.515)" fill="#fdc2cc"/>
      <ellipse id="Ellipse_31" data-name="Ellipse 31" cx="82.085" cy="82.085" rx="82.085" ry="82.085" transform="translate(201.423 71.515)" opacity="0.03"/>
      <path id="Path_324" data-name="Path 324" d="M643.78,688.379H218.071l-6.227-53.78c-13.02-86.614,47.553-99.634,47.553-99.634l66.234-30.57,26.324-24.625c-8.492,32.268,55.761,99.351,55.761,99.351h0a15.225,15.225,0,0,0,1.172-1.217c1.732-1.891,5.87-6.623,15.562-18.364,3.465-4.206,7.648-9.307,12.686-15.5,24.229-29.777,11.8-64.96,8.084-72.235l-.232-.453c-.142-.26-.249-.47-.334-.617a.922.922,0,0,0-.085-.153.907.907,0,0,1-.062-.113l31.136,24.342s1.194.317,3.4.94c12.115,3.4,54.674,16.026,93.973,34.725C619.438,552.515,643.78,688.379,643.78,688.379Z" transform="translate(-120.245 -229.09)" fill="#4678b5"/>
      <path id="Path_325" data-name="Path 325" d="M643.025,558.679c-5.095-5.095-39.627-11.322-39.627-11.322,1.132,13.586-40.759,34.532-40.759,34.532l3.114,106.427H545.667l-3.4-95.671,9.624-13.586h0l1.172-1.217a186.821,186.821,0,0,0,15.562-18.364c3.464-4.206,7.648-9.307,12.686-15.5,24.229-29.777,11.8-64.96,8.084-72.235l-.232-.453c-.136-.266-.243-.47-.334-.617a.92.92,0,0,0-.085-.153.9.9,0,0,1-.062-.113h0s10.19-2.264,28.305,16.983a53.059,53.059,0,0,1,6.227,8.3C637.936,519.307,647.514,563.168,643.025,558.679Z" transform="translate(-264.412 -229.027)" fill="#6c63ff"/>
      <path id="Path_326" data-name="Path 326" d="M643.025,558.679c-5.095-5.095-39.627-11.322-39.627-11.322,1.132,13.586-40.759,34.532-40.759,34.532l3.114,106.427H545.667l-3.4-95.671,9.624-13.586h0l1.172-1.217a186.821,186.821,0,0,0,15.562-18.364c3.464-4.206,7.648-9.307,12.686-15.5,24.229-29.777,11.8-64.96,8.084-72.235l-.232-.453c-.136-.266-.243-.47-.334-.617a.92.92,0,0,0-.085-.153.9.9,0,0,1-.062-.113h0s10.19-2.264,28.305,16.983a53.059,53.059,0,0,1,6.227,8.3C637.936,519.307,647.514,563.168,643.025,558.679Z" transform="translate(-264.412 -229.027)" fill="#abc9ee"/>
      <path id="Path_327" data-name="Path 327" d="M313.25,703.4s26.607,54.346,28.022,86.33" transform="translate(-165.041 -330.158)" opacity="0.1"/>
      <path id="Path_328" data-name="Path 328" d="M767.942,714.31,760.3,769.5h7.642Z" transform="translate(-329.889 -309.927)" opacity="0.1"/>
      <path id="Path_329" data-name="Path 329" d="M323.75,670.773l42.175-95.954s11.888-22.644,14.719-45.288,18.115-58.308,18.115-58.308S436.687,423.1,454.237,429.9s-15.285,32.268-15.285,32.268,48.119,18.681,15.285,74.159-33.4,45.288-33.4,45.288L404.7,670.773Z" transform="translate(-169.597 -211.2)" opacity="0.1"/>
      <path id="Path_330" data-name="Path 330" d="M321.75,670.763l42.175-95.954s11.888-22.644,14.719-45.288c1.8-14.4,8.633-34.057,13.371-46.471a71.251,71.251,0,0,1,13.428-22.078c12.262-13.722,34.532-35.851,46.794-31.1,17.549,6.793-15.285,32.268-15.285,32.268s48.119,18.681,15.285,74.159-33.4,45.288-33.4,45.288L402.7,670.752Z" transform="translate(-168.729 -211.191)" fill="#fdc2cc"/>
      <ellipse id="Ellipse_32" data-name="Ellipse 32" cx="1.698" cy="1.698" rx="1.698" ry="1.698" transform="translate(307.001 105.765)" fill="#fff" opacity="0.15"/>
      <ellipse id="Ellipse_33" data-name="Ellipse 33" cx="1.698" cy="1.698" rx="1.698" ry="1.698" transform="translate(299.076 109.161)" fill="#fff" opacity="0.15"/>
      <path id="Path_331" data-name="Path 331" d="M428.6,111.953c8.192-2.649,17.283-2.078,25.141-5.6,10.626-4.767,17.323-16.3,28.35-20.04,4.914-1.664,10.246-1.6,15.4-1.07a91.182,91.182,0,0,1,45.662,18.042c10.931,8.316,21.189,19.655,34.894,20.544,3.312.215,6.68-.221,9.924.476,8.4,1.8,13.434,10.456,15.851,18.681a70.344,70.344,0,0,1-8.865,58.082c-3.1,4.642-6.884,9.188-7.648,14.719-.747,5.423,1.563,11.045.215,16.355-1.132,4.4-4.529,7.784-7.835,10.9q-17.125,16.2-35,31.56c-6.193-19.678,2.893-40.867,1.478-61.445-.566-8.016-3.4-16.768-10.467-20.549-6.618-3.532-15.075-1.7-21.772-5.095-7.473-3.765-10.541-12.681-16.19-18.851-9.624-10.529-26.329-11.888-39.786-7.133s-24.456,14.538-35.1,24.076l-19.344,17.351c-3.776-4.257-.911-10.79,1.132-16.111,3.046-7.976,3.714-16.575,3.51-25.044-.164-6.793-2.508-13.5-2.372-20.114C406.048,128.647,416.4,115.9,428.6,111.953Z" transform="translate(-203.402 -61.796)" opacity="0.1"/>
      <path id="Path_332" data-name="Path 332" d="M428.6,108.953c8.192-2.649,17.283-2.078,25.141-5.6,10.626-4.767,17.323-16.3,28.35-20.04,4.914-1.664,10.246-1.6,15.4-1.07a91.182,91.182,0,0,1,45.662,18.042c10.931,8.316,21.189,19.655,34.894,20.544,3.312.215,6.68-.221,9.924.476,8.4,1.8,13.434,10.456,15.851,18.681a70.344,70.344,0,0,1-8.865,58.082c-3.1,4.642-6.884,9.188-7.648,14.719-.747,5.423,1.563,11.045.215,16.355-1.132,4.4-4.529,7.784-7.835,10.9q-17.125,16.2-35,31.56c-6.193-19.678,2.893-40.867,1.478-61.445-.566-8.016-3.4-16.768-10.467-20.549-6.618-3.532-15.075-1.7-21.772-5.095-7.473-3.765-10.541-12.681-16.19-18.851-9.624-10.529-26.329-11.888-39.786-7.133s-24.456,14.537-35.1,24.076l-19.344,17.351c-3.776-4.257-.911-10.79,1.132-16.111,3.046-7.976,3.714-16.575,3.51-25.044-.164-6.793-2.508-13.5-2.372-20.114C406.048,125.647,416.4,112.9,428.6,108.953Z" transform="translate(-203.402 -60.494)" fill="#4e4e4e"/>
    </g>
    <path id="Path_364" data-name="Path 364" d="M451.292,594.932H317.5V568H451.292Zm-132.054-1.738H449.554V569.738H319.238Z" transform="translate(443.636 -300.416)" fill="#e1e6ed"/>
    <ellipse id="Ellipse_47" data-name="Ellipse 47" cx="8.688" cy="8.688" rx="8.688" ry="8.688" transform="translate(869.733 272.362)" fill="#e5e4f4"/>
    <ellipse id="Ellipse_48" data-name="Ellipse 48" cx="8.688" cy="8.688" rx="8.688" ry="8.688" transform="translate(845.407 272.362)" fill="#e5e4f4"/>
    <ellipse id="Ellipse_49" data-name="Ellipse 49" cx="8.688" cy="8.688" rx="8.688" ry="8.688" transform="translate(821.082 272.362)" fill="#e5e4f4"/>
    <ellipse id="Ellipse_50" data-name="Ellipse 50" cx="8.688" cy="8.688" rx="8.688" ry="8.688" transform="translate(796.756 272.362)" fill="#e5e4f4"/>
    <ellipse id="Ellipse_51" data-name="Ellipse 51" cx="8.688" cy="8.688" rx="8.688" ry="8.688" transform="translate(772.43 272.362)" fill="#e5e4f4"/>
  </g>
</svg>
