<svg xmlns="http://www.w3.org/2000/svg" width="790.96" height="513.678" viewBox="0 0 790.96 513.678">
  <g id="Group_207" data-name="Group 207" transform="translate(-620.529 -193)">
    <g id="Group_36" data-name="Group 36" transform="translate(620.529 193.006)">
      <path id="Path_384" data-name="Path 384" d="M464.3,121.8c-50.7.068-99.5-14.3-146.177-30.27s-93-33.845-142.752-41.421c-32-4.87-68.388-4.422-93.4,13.26C57.89,80.38,50.918,108.535,47.553,134.546c-2.53,19.568-3.7,40.105,5.779,58,6.579,12.426,17.838,22.667,25.774,34.509,27.7,41.2,11.042,93.823-15.878,135.976C50.606,382.813,35.82,401.77,26.277,422.68S12.82,467.3,22.553,487.942c9.645,20.456,31.43,35.3,54.81,45.443,47.478,20.632,102.755,25.055,156.547,26.757,119.074,3.778,238.378-3.927,357.364-11.632,44.032-2.849,88.261-5.718,131.384-13.972,23.942-4.578,48.6-11.374,65.573-26.269,21.548-18.91,25.957-49.784,10.276-71.976-26.3-37.222-95.633-44.242-114.489-84.517-10.4-22.172-1.431-47.6,11.774-68.971,28.324-45.857,77.076-86.932,77.9-138.221.563-35.222-24.79-69.582-62.657-84.89-39.691-16.034-93.809-11.91-121.617,17.974C560.82,108.453,509.063,121.754,464.3,121.8Z" transform="translate(-16.91 -47.46)" fill="#6c63ff" opacity="0.1"/>
      <path id="Path_385" data-name="Path 385" d="M1001.567,691.4s-8.336-5.5-16.6-1.587c0,0,2.543,4.9,13,4.436Z" transform="translate(-328.382 -253.686)" fill="#6c63ff"/>
      <path id="Path_386" data-name="Path 386" d="M1008.379,693.25s2.537,9.658-3.825,16.231c0,0-3.825-3.981,0-13.735Z" transform="translate(-334.136 -255.244)" fill="#6c63ff"/>
      <path id="Path_387" data-name="Path 387" d="M1017.187,676.714s-.617-8.214-19.167-5.487c0,0-.088,5.3,6.423,7.807S1013.939,679.427,1017.187,676.714Z" transform="translate(-332.581 -247.98)" fill="#6c63ff"/>
      <path id="Path_388" data-name="Path 388" d="M1025.42,679.5s7.841,2.516.848,19.913c0,0-5.175-1.153-6.1-8.078S1021.988,682.023,1025.42,679.5Z" transform="translate(-339.647 -250.82)" fill="#6c63ff"/>
      <path id="Path_389" data-name="Path 389" d="M1034.939,656.517S1036,643,1017.046,644.383c0,0-1.356,12.209,14.549,15.383Z" transform="translate(-338.693 -239.489)" fill="#6c63ff"/>
      <path id="Path_390" data-name="Path 390" d="M1051.688,634.314s-2.6-15.322-21.548-10.757c0,0-.068,13.246,18.455,14.406Z" transform="translate(-342.915 -232.547)" fill="#6c63ff"/>
      <path id="Path_403" data-name="Path 403" d="M1042.742,662.15s13.443-1.757,13.043,17.241c0,0-12.148,1.98-16.115-13.735Z" transform="translate(-345.981 -245.224)" fill="#6c63ff"/>
      <path id="Path_421" data-name="Path 421" d="M744.394,132.69H92.676A5.806,5.806,0,0,0,86.87,138.5v16.916H750.2V138.5A5.806,5.806,0,0,0,744.394,132.69Z" transform="translate(-39.42 -74.885)" fill="#4678b5"/>
      <path id="Path_422" data-name="Path 422" d="M86.87,166.19V546.852a11.707,11.707,0,0,0,11.707,11.707H738.493A11.706,11.706,0,0,0,750.2,546.852V166.19Z" transform="translate(-39.42 -85.663)" fill="#fff"/>
      <circle id="Ellipse_73" data-name="Ellipse 73" cx="2.713" cy="2.713" r="2.713" transform="translate(55.244 66.284)" fill="#fa5959" opacity="0.8"/>
      <circle id="Ellipse_74" data-name="Ellipse 74" cx="2.713" cy="2.713" r="2.713" transform="translate(62.704 66.284)" fill="#fed253" opacity="0.8"/>
      <circle id="Ellipse_75" data-name="Ellipse 75" cx="2.713" cy="2.713" r="2.713" transform="translate(70.165 66.284)" fill="#8ccf4d" opacity="0.8"/>
      <rect id="Rectangle_80" data-name="Rectangle 80" width="533.106" height="234.417" transform="translate(109.11 143.998)" opacity="0.05"/>
      <path id="Path_437" data-name="Path 437" d="M0,0H524.967V229.249H0Z" transform="translate(113.18 145.775)" fill="#4678b5"/>
      <path id="Path_423" data-name="Path 423" d="M370.005,349.38a52.225,52.225,0,1,0,52.225,52.225,52.225,52.225,0,0,0-52.225-52.225Zm9.367,53.48v24.729H360.91V402.86a15.295,15.295,0,1,1,18.462,0Z" transform="translate(-113.714 -144.604)" fill="#6c63ff"/>
      <path id="Path_424" data-name="Path 424" d="M370.005,349.38a52.225,52.225,0,1,0,52.225,52.225,52.225,52.225,0,0,0-52.225-52.225Zm9.367,53.48v24.729H360.91V402.86a15.295,15.295,0,1,1,18.462,0Z" transform="translate(-113.714 -144.604)" fill="#f4f8fe"/>
      <path id="Path_425" data-name="Path 425" d="M362.927,327.38a67.147,67.147,0,1,0,67.147,67.147,67.147,67.147,0,0,0-67.147-67.147Zm12.039,68.761v31.79H351.227v-31.79a19.669,19.669,0,1,1,23.739,0Z" transform="translate(-106.636 -137.526)" fill="#abc9ee"/>
      <rect id="Rectangle_82" data-name="Rectangle 82" width="217.041" height="23.061" transform="translate(351.246 248.191)" fill="#fff"/>
      <path id="Path_426" data-name="Path 426" d="M561.615,427.628h-3.927l3.493-3.486a.346.346,0,0,0,0-.482.339.339,0,0,0-.482,0l-3.493,3.493v-3.934a.339.339,0,0,0-.339-.339.346.346,0,0,0-.339.339v3.934l-3.486-3.513a.339.339,0,0,0-.482,0,.346.346,0,0,0,0,.481l3.493,3.486h-3.934a.346.346,0,0,0-.339.339.339.339,0,0,0,.339.339h3.934l-3.493,3.493a.346.346,0,0,0,0,.481.353.353,0,0,0,.482,0l3.486-3.493v3.927a.339.339,0,1,0,.678,0v-3.927l3.493,3.493a.353.353,0,0,0,.482,0,.346.346,0,0,0,0-.481l-3.493-3.493h3.927a.329.329,0,1,0,0-.658Z" transform="translate(-189.004 -168.253)" fill="#6c63ff"/>
      <path id="Path_427" data-name="Path 427" d="M582.615,427.628h-3.927l3.493-3.486a.346.346,0,0,0,0-.482.339.339,0,0,0-.482,0l-3.493,3.493v-3.934a.339.339,0,0,0-.339-.339.346.346,0,0,0-.339.339v3.934l-3.486-3.513a.339.339,0,0,0-.482,0,.346.346,0,0,0,0,.481l3.493,3.486h-3.934a.346.346,0,0,0-.339.339.339.339,0,0,0,.339.339h3.934l-3.493,3.493a.346.346,0,0,0,0,.481.353.353,0,0,0,.482,0l3.486-3.493v3.927a.339.339,0,1,0,.678,0v-3.927l3.493,3.493a.353.353,0,0,0,.482,0,.346.346,0,0,0,0-.481l-3.493-3.493h3.927a.329.329,0,1,0,0-.658Z" transform="translate(-195.76 -168.253)" fill="#6c63ff"/>
      <path id="Path_428" data-name="Path 428" d="M603.615,427.628h-3.927l3.493-3.486a.346.346,0,0,0,0-.482.339.339,0,0,0-.482,0l-3.493,3.493v-3.934a.339.339,0,0,0-.339-.339.346.346,0,0,0-.339.339v3.934l-3.486-3.513a.339.339,0,0,0-.482,0,.346.346,0,0,0,0,.481l3.493,3.486h-3.934a.346.346,0,0,0-.339.339.339.339,0,0,0,.339.339h3.934l-3.493,3.493a.346.346,0,0,0,0,.481.353.353,0,0,0,.482,0l3.486-3.493v3.927a.339.339,0,1,0,.678,0v-3.927l3.493,3.493a.353.353,0,0,0,.482,0,.346.346,0,0,0,0-.481l-3.493-3.493h3.927a.329.329,0,1,0,0-.658Z" transform="translate(-202.517 -168.253)" fill="#6c63ff"/>
      <path id="Path_429" data-name="Path 429" d="M624.615,427.628h-3.927l3.493-3.486a.346.346,0,0,0,0-.482.339.339,0,0,0-.482,0l-3.493,3.493v-3.934a.339.339,0,0,0-.339-.339.346.346,0,0,0-.339.339v3.934l-3.486-3.513a.339.339,0,0,0-.481,0,.346.346,0,0,0,0,.481l3.493,3.486h-3.934a.346.346,0,0,0-.339.339.339.339,0,0,0,.339.339h3.934l-3.493,3.493a.346.346,0,0,0,0,.481.352.352,0,0,0,.481,0l3.486-3.493v3.927a.339.339,0,1,0,.678,0v-3.927l3.493,3.493a.353.353,0,0,0,.482,0,.346.346,0,0,0,0-.481l-3.493-3.493h3.927a.329.329,0,1,0,0-.658Z" transform="translate(-209.274 -168.253)" fill="#6c63ff"/>
      <path id="Path_430" data-name="Path 430" d="M645.615,427.628h-3.927l3.493-3.486a.346.346,0,0,0,0-.482.339.339,0,0,0-.482,0l-3.493,3.493v-3.934a.339.339,0,0,0-.339-.339.346.346,0,0,0-.339.339v3.934l-3.486-3.513a.339.339,0,0,0-.482,0,.346.346,0,0,0,0,.481l3.493,3.486h-3.934a.346.346,0,0,0-.339.339.339.339,0,0,0,.339.339h3.934l-3.493,3.493a.346.346,0,0,0,0,.481.353.353,0,0,0,.482,0l3.486-3.493v3.927a.339.339,0,1,0,.678,0v-3.927l3.493,3.493a.353.353,0,0,0,.482,0,.346.346,0,0,0,0-.481l-3.493-3.493h3.927a.329.329,0,1,0,0-.658Z" transform="translate(-216.03 -168.253)" fill="#6c63ff"/>
      <path id="Path_431" data-name="Path 431" d="M666.615,427.628h-3.927l3.493-3.486a.346.346,0,0,0,0-.482.339.339,0,0,0-.482,0l-3.493,3.493v-3.934a.339.339,0,0,0-.339-.339.346.346,0,0,0-.339.339v3.934l-3.486-3.513a.339.339,0,0,0-.482,0,.346.346,0,0,0,0,.481l3.493,3.486h-3.934a.346.346,0,0,0-.339.339.339.339,0,0,0,.339.339h3.934l-3.493,3.493a.346.346,0,0,0,0,.481.353.353,0,0,0,.482,0l3.486-3.493v3.927a.339.339,0,1,0,.678,0v-3.927l3.493,3.493a.353.353,0,0,0,.482,0,.346.346,0,0,0,0-.481l-3.493-3.493h3.927a.329.329,0,1,0,0-.658Z" transform="translate(-222.787 -168.253)" fill="#6c63ff"/>
      <path id="Path_432" data-name="Path 432" d="M687.615,427.628h-3.927l3.493-3.486a.346.346,0,0,0,0-.482.339.339,0,0,0-.482,0l-3.493,3.493v-3.934a.339.339,0,0,0-.339-.339.346.346,0,0,0-.339.339v3.934l-3.486-3.513a.339.339,0,0,0-.482,0,.346.346,0,0,0,0,.481l3.493,3.486h-3.934a.346.346,0,0,0-.339.339.339.339,0,0,0,.339.339h3.934l-3.493,3.493a.346.346,0,0,0,0,.481.353.353,0,0,0,.482,0l3.486-3.493v3.927a.339.339,0,1,0,.678,0v-3.927l3.493,3.493a.353.353,0,0,0,.482,0,.346.346,0,0,0,0-.481l-3.493-3.493h3.927a.329.329,0,1,0,0-.658Z" transform="translate(-229.544 -168.253)" fill="#6c63ff"/>
      <path id="Path_433" data-name="Path 433" d="M708.615,427.628h-3.927l3.493-3.486a.346.346,0,0,0,0-.482.339.339,0,0,0-.482,0l-3.493,3.493v-3.934a.339.339,0,0,0-.339-.339.346.346,0,0,0-.339.339v3.934l-3.486-3.513a.339.339,0,0,0-.481,0,.346.346,0,0,0,0,.481l3.493,3.486h-3.934a.346.346,0,0,0-.339.339.339.339,0,0,0,.339.339h3.934l-3.493,3.493a.346.346,0,0,0,0,.481.352.352,0,0,0,.481,0l3.486-3.493v3.927a.339.339,0,1,0,.678,0v-3.927l3.493,3.493a.353.353,0,0,0,.482,0,.346.346,0,0,0,0-.481l-3.493-3.493h3.927a.329.329,0,1,0,0-.658Z" transform="translate(-236.301 -168.253)" fill="#6c63ff"/>
      <path id="Path_434" data-name="Path 434" d="M729.615,427.628h-3.927l3.493-3.486a.346.346,0,0,0,0-.482.339.339,0,0,0-.482,0l-3.493,3.493v-3.934a.339.339,0,0,0-.339-.339.346.346,0,0,0-.339.339v3.934l-3.486-3.513a.339.339,0,0,0-.482,0,.346.346,0,0,0,0,.481l3.493,3.486h-3.934a.346.346,0,0,0-.339.339.339.339,0,0,0,.339.339h3.934l-3.493,3.493a.346.346,0,0,0,0,.481.353.353,0,0,0,.482,0l3.486-3.493v3.927a.339.339,0,1,0,.678,0v-3.927l3.493,3.493a.353.353,0,0,0,.482,0,.346.346,0,0,0,0-.481l-3.493-3.493h3.927a.329.329,0,1,0,0-.658Z" transform="translate(-243.057 -168.253)" fill="#6c63ff"/>
      <path id="Path_435" data-name="Path 435" d="M750.615,427.628h-3.927l3.493-3.486a.346.346,0,0,0,0-.482.339.339,0,0,0-.482,0l-3.493,3.493v-3.934a.339.339,0,0,0-.339-.339.346.346,0,0,0-.339.339v3.934l-3.486-3.513a.339.339,0,0,0-.482,0,.346.346,0,0,0,0,.481l3.493,3.486h-3.934a.346.346,0,0,0-.339.339.339.339,0,0,0,.339.339h3.934l-3.493,3.493a.346.346,0,0,0,0,.481.353.353,0,0,0,.482,0l3.486-3.493v3.927a.339.339,0,1,0,.678,0v-3.927l3.493,3.493a.353.353,0,0,0,.482,0,.346.346,0,0,0,0-.481l-3.493-3.493h3.927a.329.329,0,1,0,0-.658Z" transform="translate(-249.814 -168.253)" fill="#6c63ff"/>
      <path id="Path_436" data-name="Path 436" d="M771.615,427.628h-3.927l3.493-3.486a.346.346,0,0,0,0-.482.339.339,0,0,0-.482,0l-3.493,3.493v-3.934a.339.339,0,0,0-.339-.339.346.346,0,0,0-.339.339v3.934l-3.486-3.513a.339.339,0,0,0-.482,0,.346.346,0,0,0,0,.481l3.493,3.486h-3.934a.346.346,0,0,0-.339.339.339.339,0,0,0,.339.339h3.934l-3.493,3.493a.346.346,0,0,0,0,.481.353.353,0,0,0,.482,0l3.486-3.493v3.927a.339.339,0,1,0,.678,0v-3.927l3.493,3.493a.353.353,0,0,0,.482,0,.346.346,0,0,0,0-.481l-3.493-3.493h3.927a.329.329,0,1,0,0-.658Z" transform="translate(-256.571 -168.253)" fill="#6c63ff"/>
    </g>
  </g>
</svg>
