<svg xmlns="http://www.w3.org/2000/svg" width="113.101" height="91.362" viewBox="0 0 113.101 91.362">
  <g id="Group_15" data-name="Group 15" transform="translate(0 0)">
    <path id="Path_198" data-name="Path 198" d="M714.992,175.047v58.118a1.463,1.463,0,0,1-1.462,1.463H614.87a1.232,1.232,0,0,1-.21-.016,1.462,1.462,0,0,1-1.253-1.447V175.047a1.463,1.463,0,0,1,1.462-1.463h98.659a1.463,1.463,0,0,1,1.463,1.462Z" transform="translate(-607.716 -168.281)" fill="#e6e6e6"/>
    <circle id="Ellipse_22" data-name="Ellipse 22" cx="12.837" cy="12.837" r="12.837" transform="translate(17.723 14.185)" fill="#abc9ee"/>
    <path id="Path_199" data-name="Path 199" d="M685.042,264.138H622.069a1.283,1.283,0,0,1-.235-.019l29.783-51.589a2.085,2.085,0,0,1,3.63,0l19.988,34.62.958,1.657Z" transform="translate(-614.228 -197.558)" fill="#4678b5"/>
    <path id="Path_200" data-name="Path 200" d="M712.877,235.2h-21.5l10.555-15.331.76-1.1.38-.552.957,1.657Z" transform="translate(-642.063 -168.619)" opacity="0.2"/>
    <path id="Path_201" data-name="Path 201" d="M869.046,315.834H814.579L825.134,300.5l.76-1.1,13.754-19.979a2.783,2.783,0,0,1,4.131-.247,2.494,2.494,0,0,1,.2.247Z" transform="translate(-763.168 -249.254)" fill="#4678b5"/>
    <path id="Path_202" data-name="Path 202" d="M701.193,153.346a4.689,4.689,0,0,0-4.4-3.1H593.046a4.676,4.676,0,0,0-4.678,4.678v82.005a4.685,4.685,0,0,0,4.678,4.678H696.791a4.685,4.685,0,0,0,4.678-4.678V154.928a4.644,4.644,0,0,0-.276-1.582Zm-.275,83.588a4.133,4.133,0,0,1-4.128,4.128H593.046a4.133,4.133,0,0,1-4.128-4.128V154.928a4.133,4.133,0,0,1,4.128-4.128H696.791a4.133,4.133,0,0,1,4.128,4.128Z" transform="translate(-588.368 -150.25)" fill="#b0b0b0"/>
  </g>
</svg>
