<svg id="Component_56_1" data-name="Component 56 – 1" xmlns="http://www.w3.org/2000/svg" width="42" height="42" viewBox="0 0 42 42">
  <path id="Path_183" data-name="Path 183" d="M1174.08,590.25h0a21,21,0,0,1-21-21h0a21,21,0,0,1,21-21h0a21,21,0,0,1,21,21h0A21,21,0,0,1,1174.08,590.25Z" transform="translate(-1153.08 -548.25)" fill="#0e71eb"/>
  <g id="Group_150" data-name="Group 150" transform="translate(10.543 12.371)">
    <path id="Path_258" data-name="Path 258" d="M1177.577,563.108a11.169,11.169,0,0,1,8.431,3.582,7.728,7.728,0,0,1,1.7,2.985,6.659,6.659,0,0,1,.131,3.284,7.158,7.158,0,0,1-1.517,3.093,21.389,21.389,0,0,1-3.965,3.774,37.8,37.8,0,0,1-4.657,2.938,2.809,2.809,0,0,1-.454.19.471.471,0,0,1-.417-.048.463.463,0,0,1-.215-.275.722.722,0,0,1,.012-.346c.063-.287.1-.407.1-.359a5.616,5.616,0,0,0,.119-1.146.688.688,0,0,0-.382-.573,4.079,4.079,0,0,0-1.075-.334,11.941,11.941,0,0,1-5.541-2.556,7.841,7.841,0,0,1-2.436-3.606,6.893,6.893,0,0,1-.048-4.012,7.915,7.915,0,0,1,2.34-3.678,10.345,10.345,0,0,1,3.654-2.2A13.482,13.482,0,0,1,1177.577,563.108Zm-6.783,8.622v1.815q0,.765.645.788a16.346,16.346,0,0,0,1.982-.024.531.531,0,0,0,.549-.549q0-.43-.573-.525a2.423,2.423,0,0,0-.573-.024q-.55.095-.752-.143a1.112,1.112,0,0,1-.156-.812q.023-.453.024-1.1-.023-1.122-.024-1.1a1.719,1.719,0,0,0-.071-.6.574.574,0,0,0-.98,0,1.518,1.518,0,0,0-.072.549v1.72Zm3.654-.12q0,1.863.024,2.006a.768.768,0,0,0,.155.5.494.494,0,0,0,.431.179.486.486,0,0,0,.406-.2.826.826,0,0,0,.131-.478l-.024-3.8a.765.765,0,0,0-.131-.465.483.483,0,0,0-.418-.18q-.526,0-.549.645Zm5.016.216a.27.27,0,0,1-.072.048l-.1.048-1.815-2.388a.7.7,0,0,0-.728-.335q-.394.1-.394.669-.024,1.648-.024,3.7.023.741.573.728t.549-.752V571.61a10.981,10.981,0,0,1,1.075,1.146q.311.383.908,1.171a1.43,1.43,0,0,0,.311.31.458.458,0,0,0,.407.048c.254-.079.382-.311.382-.693v-3.7q0-.74-.549-.717a.483.483,0,0,0-.43.263.953.953,0,0,0-.1.5v1.887Zm1.815-.144v1.887q0,.716.573.74a15.072,15.072,0,0,0,2.077,0,.576.576,0,0,0,.383-.179.467.467,0,0,0,.119-.383.521.521,0,0,0-.155-.346.594.594,0,0,0-.346-.143,8.857,8.857,0,0,0-1.051-.048.561.561,0,0,1-.382-.108.477.477,0,0,1-.119-.37.4.4,0,0,1,.119-.346.623.623,0,0,1,.358-.084q.717,0,.955-.024.621-.048.621-.573,0-.429-.573-.525a2.473,2.473,0,0,0-.382-.024h-.382c.1.016.016.016-.239,0a.764.764,0,0,1-.262-.036.308.308,0,0,1-.156-.132.608.608,0,0,1-.06-.311.487.487,0,0,1,.131-.346.476.476,0,0,1,.3-.084h1q.621-.072.621-.573a.426.426,0,0,0-.155-.359.957.957,0,0,0-.418-.167,4.163,4.163,0,0,0-1.6-.132.988.988,0,0,0-.764.61,4.284,4.284,0,0,0-.214,1.576v.479Z" transform="translate(-1167.079 -563.108)" fill="#fff"/>
  </g>
</svg>
