<svg xmlns="http://www.w3.org/2000/svg" width="67.14" height="61.238" viewBox="0 0 67.14 61.238">
  <g id="Group_30" data-name="Group 30" transform="translate(-0.002 -0.001)">
    <rect id="Rectangle_78" data-name="Rectangle 78" width="58.597" height="5.327" transform="translate(1.606 22.023) rotate(-16.244)" fill="#0e71eb"/>
    <path id="Path_268" data-name="Path 268" d="M324.4,237l-8.292-28.46a.829.829,0,0,1,.564-1.027l54.894-15.994a.829.829,0,0,1,1.027.564l7.346,25.213-.227.066-7.346-25.213a.593.593,0,0,0-.734-.4l-54.894,15.994a.592.592,0,0,0-.4.734l8.292,28.46Z" transform="translate(-316.071 -191.488)" fill="#3f3d56"/>
    <path id="Path_269" data-name="Path 269" d="M736.842,353.14a.771.771,0,0,1-.739-.554l-1.391-4.773a.77.77,0,0,1,.523-.954l4.773-1.391a.77.77,0,0,1,.954.524l1.391,4.773a.77.77,0,0,1-.523.954l-4.773,1.391A.767.767,0,0,1,736.842,353.14Z" transform="translate(-685.126 -327.212)" fill="#4678b5"/>
    <path id="Path_270" data-name="Path 270" d="M364.577,328.673a1.385,1.385,0,0,0-.051-.144,1.42,1.42,0,0,0-2.712.79,1.347,1.347,0,0,0,.034.149,1.423,1.423,0,0,0,1.365,1.023,1.392,1.392,0,0,0,.4-.057A1.422,1.422,0,0,0,364.577,328.673Zm-1.033,1.533a1.185,1.185,0,0,1-1.468-.8,1.356,1.356,0,0,1-.033-.149,1.183,1.183,0,0,1,2.254-.656.989.989,0,0,1,.053.143,1.184,1.184,0,0,1-.806,1.467Z" transform="translate(-356.378 -311.53)" fill="#6c63ff"/>
    <path id="Path_271" data-name="Path 271" d="M349.425,334.229a1.3,1.3,0,0,1,.5-1.427,1.3,1.3,0,1,0,.689,2.364A1.3,1.3,0,0,1,349.425,334.229Z" transform="translate(-344.71 -316.071)" fill="#4678b5"/>
    <path id="Path_272" data-name="Path 272" d="M595.344,390.53a.715.715,0,0,0-.882-.5l-7.859,2.2-.846.237h5.315l.846-.237,2.93-.819A.716.716,0,0,0,595.344,390.53Z" transform="translate(-553.831 -366.505)" fill="#ccc"/>
    <path id="Path_273" data-name="Path 273" d="M521.49,376.667a.716.716,0,0,0-.882-.5l-11.793,3.3a.718.718,0,0,0-.517.778h3.053l.848-.237,8.8-2.46A.717.717,0,0,0,521.49,376.667Z" transform="translate(-485.536 -354.284)" fill="#ccc"/>
    <path id="Path_274" data-name="Path 274" d="M444.246,408.8H387.07a.83.83,0,0,0-.829.829v33.856a.83.83,0,0,0,.829.829h57.176a.83.83,0,0,0,.829-.829V409.627A.83.83,0,0,0,444.246,408.8Zm.592,34.685a.592.592,0,0,1-.592.592H387.07a.592.592,0,0,1-.592-.592V409.627a.592.592,0,0,1,.592-.592h57.176a.592.592,0,0,1,.592.592Z" transform="translate(-377.933 -383.072)" fill="#3f3d56"/>
    <path id="Path_275" data-name="Path 275" d="M429.658,426.641a1.421,1.421,0,1,1,1.421-1.421A1.421,1.421,0,0,1,429.658,426.641Zm0-2.6a1.184,1.184,0,1,0,1.184,1.184A1.184,1.184,0,0,0,429.658,424.037Z" transform="translate(-414.958 -396.298)" fill="#6c63ff"/>
    <path id="Path_276" data-name="Path 276" d="M415.258,426.1a1.3,1.3,0,0,1,.877-1.231,1.3,1.3,0,1,0,0,2.462A1.3,1.3,0,0,1,415.258,426.1Z" transform="translate(-402.766 -397.18)" fill="#4678b5"/>
    <path id="Path_277" data-name="Path 277" d="M480.946,537.905a1.067,1.067,0,0,1-1.065-1.065v-3.2a1.065,1.065,0,0,1,2.131,0v3.2a1.067,1.067,0,0,1-1.065,1.065Z" transform="translate(-460.488 -492.2)" fill="#4678b5"/>
    <path id="Path_278" data-name="Path 278" d="M504.946,537.905a1.067,1.067,0,0,1-1.065-1.065v-3.2a1.065,1.065,0,0,1,2.131,0v3.2A1.067,1.067,0,0,1,504.946,537.905Z" transform="translate(-481.647 -492.2)" fill="#4678b5"/>
    <path id="Path_279" data-name="Path 279" d="M528.946,537.905a1.067,1.067,0,0,1-1.065-1.065v-3.2a1.065,1.065,0,0,1,2.131,0v3.2A1.067,1.067,0,0,1,528.946,537.905Z" transform="translate(-502.806 -492.2)" fill="#4678b5"/>
    <path id="Path_280" data-name="Path 280" d="M565.946,537.905a1.067,1.067,0,0,1-1.065-1.065v-3.2a1.065,1.065,0,0,1,2.131,0v3.2a1.067,1.067,0,0,1-1.065,1.065Z" transform="translate(-535.426 -492.2)" fill="#4678b5"/>
    <path id="Path_281" data-name="Path 281" d="M589.946,537.905a1.067,1.067,0,0,1-1.065-1.065v-3.2a1.065,1.065,0,0,1,2.131,0v3.2A1.067,1.067,0,0,1,589.946,537.905Z" transform="translate(-556.585 -492.2)" fill="#4678b5"/>
    <path id="Path_282" data-name="Path 282" d="M613.946,537.905a1.067,1.067,0,0,1-1.065-1.065v-3.2a1.065,1.065,0,0,1,2.131,0v3.2A1.067,1.067,0,0,1,613.946,537.905Z" transform="translate(-577.744 -492.2)" fill="#4678b5"/>
    <path id="Path_283" data-name="Path 283" d="M650.946,537.905a1.067,1.067,0,0,1-1.065-1.065v-3.2a1.065,1.065,0,0,1,2.131,0v3.2A1.067,1.067,0,0,1,650.946,537.905Z" transform="translate(-610.364 -492.2)" fill="#4678b5"/>
    <path id="Path_284" data-name="Path 284" d="M674.946,537.905a1.067,1.067,0,0,1-1.065-1.065v-3.2a1.065,1.065,0,0,1,2.131,0v3.2A1.067,1.067,0,0,1,674.946,537.905Z" transform="translate(-631.523 -492.2)" fill="#4678b5"/>
    <path id="Path_285" data-name="Path 285" d="M698.946,537.905a1.067,1.067,0,0,1-1.065-1.065v-3.2a1.065,1.065,0,1,1,2.131,0v3.2A1.067,1.067,0,0,1,698.946,537.905Z" transform="translate(-652.682 -492.2)" fill="#4678b5"/>
    <path id="Path_286" data-name="Path 286" d="M735.946,537.905a1.067,1.067,0,0,1-1.065-1.065v-3.2a1.065,1.065,0,0,1,2.131,0v3.2A1.067,1.067,0,0,1,735.946,537.905Z" transform="translate(-685.302 -492.2)" fill="#4678b5"/>
    <path id="Path_287" data-name="Path 287" d="M759.946,537.905a1.067,1.067,0,0,1-1.065-1.065v-3.2a1.065,1.065,0,0,1,2.131,0v3.2A1.067,1.067,0,0,1,759.946,537.905Z" transform="translate(-706.461 -492.2)" fill="#4678b5"/>
    <path id="Path_288" data-name="Path 288" d="M783.946,537.905a1.067,1.067,0,0,1-1.065-1.065v-3.2a1.065,1.065,0,0,1,2.131,0v3.2A1.067,1.067,0,0,1,783.946,537.905Z" transform="translate(-727.62 -492.2)" fill="#4678b5"/>
    <path id="Path_289" data-name="Path 289" d="M430.45,667.082H415.128a.716.716,0,1,1,0-1.432H430.45a.716.716,0,0,1,0,1.432Z" transform="translate(-402.769 -609.519)" fill="#e6e6e6"/>
    <path id="Path_290" data-name="Path 290" d="M462.125,641.082h-5.5a.716.716,0,1,1,0-1.432h5.5a.716.716,0,1,1,0,1.432Z" transform="translate(-439.356 -586.597)" fill="#e6e6e6"/>
    <rect id="Rectangle_79" data-name="Rectangle 79" width="58.36" height="0.237" transform="translate(8.502 32.802)" fill="#3f3d56"/>
  </g>
</svg>
