<svg xmlns="http://www.w3.org/2000/svg" width="159.617" height="40.791" viewBox="0 0 159.617 40.791">
  <g id="paypal" transform="translate(0 -187.6)">
    <path id="Path_258" data-name="Path 258" d="M360.628,221.2h-8.614a1.683,1.683,0,0,0-1.267,1.013l-3.547,22.3a.672.672,0,0,0,.76.76h4.56a.672.672,0,0,0,.76-.76l1.013-6.334a1.159,1.159,0,0,1,1.267-1.013h2.787q8.741,0,9.881-8.361a6.641,6.641,0,0,0-1.013-5.574,10.219,10.219,0,0,0-6.587-2.027m1.013,8.361c-.507,3.04-2.787,3.04-5.067,3.04h-1.52l1.013-5.827c0-.253.253-.507.76-.507h.507c1.52,0,3.04,0,3.8,1.013.507.253.507,1.013.507,2.28" transform="translate(-237.242 -22.959)" fill="#139ad6"/>
    <g id="Group_29" data-name="Group 29" transform="translate(47.885 198.241)">
      <path id="Path_259" data-name="Path 259" d="M164.628,221.2h-8.614a1.683,1.683,0,0,0-1.267,1.013l-3.547,22.3a.672.672,0,0,0,.76.76h4.054a1.683,1.683,0,0,0,1.267-1.013l1.013-6.081a1.159,1.159,0,0,1,1.267-1.013h2.787q8.741,0,9.881-8.361a6.641,6.641,0,0,0-1.013-5.574,9.738,9.738,0,0,0-6.587-2.027m1.013,8.361c-.507,3.04-2.787,3.04-5.067,3.04h-1.267l1.013-5.827c0-.253.253-.507.76-.507h.507c1.52,0,3.04,0,3.8,1.013a2.714,2.714,0,0,1,.253,2.28" transform="translate(-151.2 -221.2)" fill="#263b80"/>
      <path id="Path_260" data-name="Path 260" d="M233.566,245.707h-4.054c-.253,0-.76.253-.76.507l-.253,1.267-.253-.507c-1.013-1.267-2.787-1.774-4.814-1.774a9.736,9.736,0,0,0-9.374,8.361,7.552,7.552,0,0,0,1.52,6.334c1.267,1.52,3.04,2.027,5.321,2.027a8.1,8.1,0,0,0,5.827-2.28l-.253,1.267a.672.672,0,0,0,.76.76h3.8a1.683,1.683,0,0,0,1.267-1.013l2.28-14.188c-.253-.253-.76-.76-1.013-.76m-5.827,8.108a4.9,4.9,0,0,1-4.814,4.054,4.052,4.052,0,0,1-2.787-1.013,5.4,5.4,0,0,1-.76-3.04,4.519,4.519,0,0,1,7.347-3.04,4.423,4.423,0,0,1,1.013,3.04" transform="translate(-194.042 -237.599)" fill="#263b80"/>
    </g>
    <path id="Path_261" data-name="Path 261" d="M428.766,245.707h-4.054c-.253,0-.76.253-.76.507l-.253,1.267-.253-.507c-1.013-1.267-2.787-1.774-4.814-1.774a9.735,9.735,0,0,0-9.374,8.361,7.551,7.551,0,0,0,1.52,6.334c1.267,1.52,3.04,2.027,5.321,2.027a8.1,8.1,0,0,0,5.827-2.28l-.253,1.267a.672.672,0,0,0,.76.76h3.8a1.683,1.683,0,0,0,1.267-1.013l2.28-14.188c-.253-.253-.507-.76-1.013-.76m-5.827,8.108a4.9,4.9,0,0,1-4.814,4.054,4.052,4.052,0,0,1-2.787-1.013,5.4,5.4,0,0,1-.76-3.04,4.519,4.519,0,0,1,7.347-3.04,2.908,2.908,0,0,1,1.013,3.04" transform="translate(-279.537 -39.358)" fill="#139ad6"/>
    <path id="Path_262" data-name="Path 262" d="M303.509,246.8H299.2a1.316,1.316,0,0,0-1.013.507l-5.574,8.614-2.534-8.108a1.171,1.171,0,0,0-1.267-.76H284.76c-.507,0-.76.507-.76,1.013l4.56,13.428-4.307,6.081c-.253.507,0,1.267.507,1.267h4.054a1.316,1.316,0,0,0,1.013-.507l13.935-20.015c.76-.76.253-1.52-.253-1.52" transform="translate(-194.057 -40.451)" fill="#263b80"/>
    <path id="Path_263" data-name="Path 263" d="M478.747,222.292l-3.547,22.8a.672.672,0,0,0,.76.76h3.547a1.684,1.684,0,0,0,1.267-1.013l3.547-22.3a.672.672,0,0,0-.76-.76h-4.054c-.253-.253-.507,0-.76.507" transform="translate(-324.704 -23.291)" fill="#139ad6"/>
    <path id="Path_264" data-name="Path 264" d="M29.136,190.64c-1.774-2.027-5.067-3.04-9.628-3.04H6.841a2.173,2.173,0,0,0-1.774,1.52L0,222.31a1.159,1.159,0,0,0,1.013,1.267H8.868l2.027-12.415v.507a2.173,2.173,0,0,1,1.774-1.52h3.8c7.347,0,12.921-3.04,14.695-11.4v-.76h0c.253-3.294-.253-5.321-2.027-7.347" transform="translate(0 0)" fill="#263b80"/>
    <path id="Path_265" data-name="Path 265" d="M48.4,220.4h0v.76c-1.774,8.614-7.347,11.4-14.695,11.4h-3.8a2.173,2.173,0,0,0-1.774,1.52L25.6,249.536a.928.928,0,0,0,1.013,1.013H33.2a1.419,1.419,0,0,0,1.52-1.267v-.253l1.267-7.854v-.507a1.419,1.419,0,0,1,1.52-1.267h1.013c6.334,0,11.4-2.534,12.668-10.134.507-3.04.253-5.827-1.267-7.6A2.6,2.6,0,0,0,48.4,220.4" transform="translate(-17.492 -22.412)" fill="#139ad6"/>
    <path id="Path_266" data-name="Path 266" d="M52.642,216.36c-.253,0-.507-.253-.76-.253a.931.931,0,0,1-.76-.253,13.386,13.386,0,0,0-3.294-.253H37.947a.931.931,0,0,0-.76.253,1.393,1.393,0,0,0-.76,1.267L34.4,230.295v.507a2.173,2.173,0,0,1,1.774-1.52h3.8c7.347,0,12.921-3.04,14.695-11.4a.931.931,0,0,1,.253-.76c-.507-.253-.76-.507-1.267-.507-.76-.253-.76-.253-1.013-.253" transform="translate(-23.506 -19.132)" fill="#232c65"/>
  </g>
</svg>
