<svg xmlns="http://www.w3.org/2000/svg" width="17.532" height="17.532" viewBox="0 0 17.532 17.532">
  <g id="movie-tickets" transform="translate(0.199 0.2)">
    <path id="Path_490" data-name="Path 490" d="M121.554,197.505a.335.335,0,1,0-.237-.1A.337.337,0,0,0,121.554,197.505Zm0,0" transform="translate(-117.162 -190.25)" fill="#828282"/>
    <path id="Path_491" data-name="Path 491" d="M257.962,200.762a.335.335,0,1,0,.1.237A.338.338,0,0,0,257.962,200.762Zm0,0" transform="translate(-248.778 -193.95)" fill="#828282"/>
    <path id="Path_492" data-name="Path 492" d="M292.725,166.333a.335.335,0,1,0-.237-.1A.337.337,0,0,0,292.725,166.333Zm0,0" transform="translate(-282.606 -160.121)" fill="#828282"/>
    <path id="Path_493" data-name="Path 493" d="M16.129,8.231H15.2l1.644-1.644a1,1,0,0,0,0-1.42L15.348,3.677a.335.335,0,0,0-.473,0,1,1,0,0,1-1.42-1.42.334.334,0,0,0,0-.473L11.965.294a1,1,0,0,0-1.42,0L5.019,5.821a.335.335,0,0,0,.473.473L11.018.767a.334.334,0,0,1,.473,0l1.278,1.278a1.674,1.674,0,0,0,2.319,2.319l1.278,1.278a.335.335,0,0,1,0,.473L14.249,8.231H12.782l1.1-1.1a.335.335,0,0,0,0-.473L10.474,3.252a.335.335,0,0,0-.473,0l-4.98,4.98H1a1,1,0,0,0-1,1v2.108a.335.335,0,0,0,.335.335,1,1,0,1,1,0,2.008A.335.335,0,0,0,0,14.02v2.108a1,1,0,0,0,1,1H16.129a1,1,0,0,0,1-1V14.02a.335.335,0,0,0-.335-.335,1,1,0,0,1,0-2.008.335.335,0,0,0,.335-.335V9.235a1,1,0,0,0-1-1Zm-5.892-4.27L13.171,6.9,11.835,8.231H10.51l.981-.981a.335.335,0,0,0-.473-.473L9.564,8.231h-3.6Zm6.226,7.081a1.673,1.673,0,0,0,0,3.279v1.807a.335.335,0,0,1-.335.335H1a.335.335,0,0,1-.335-.335V14.321a1.673,1.673,0,0,0,0-3.279V9.235A.335.335,0,0,1,1,8.9H16.129a.335.335,0,0,1,.335.335Zm0,0" transform="translate(0)" fill="#828282" stroke="#4b688b" stroke-width="0.4"/>
    <path id="Path_494" data-name="Path 494" d="M197.071,345.567a.334.334,0,1,0-.237.1A.337.337,0,0,0,197.071,345.567Zm0,0" transform="translate(-189.924 -333.452)" fill="#828282"/>
    <path id="Path_495" data-name="Path 495" d="M296.071,345.567a.334.334,0,1,0-.237.1A.337.337,0,0,0,296.071,345.567Zm0,0" transform="translate(-285.611 -333.452)" fill="#828282"/>
    <path id="Path_496" data-name="Path 496" d="M246.571,345.567a.334.334,0,1,0-.237.1A.337.337,0,0,0,246.571,345.567Zm0,0" transform="translate(-237.768 -333.452)" fill="#828282"/>
    <path id="Path_497" data-name="Path 497" d="M147.335,345.665a.335.335,0,1,0-.237-.1A.337.337,0,0,0,147.335,345.665Zm0,0" transform="translate(-142.081 -333.452)" fill="#828282"/>
    <path id="Path_498" data-name="Path 498" d="M345.571,345.567a.334.334,0,1,0-.237.1A.337.337,0,0,0,345.571,345.567Zm0,0" transform="translate(-333.455 -333.452)" fill="#828282"/>
    <path id="Path_499" data-name="Path 499" d="M147.335,393.665h6.625a.335.335,0,0,0,0-.669h-6.625a.335.335,0,0,0,0,.669Zm0,0" transform="translate(-142.081 -379.846)" fill="#828282"/>
    <path id="Path_500" data-name="Path 500" d="M183.655,441a.335.335,0,1,0,.237.1A.337.337,0,0,0,183.655,441Zm0,0" transform="translate(-177.185 -426.24)" fill="#828282"/>
    <path id="Path_501" data-name="Path 501" d="M104.507,297H94.335a.335.335,0,0,0-.335.335v4.818a.335.335,0,0,0,.335.335h1.394a.335.335,0,1,0,0-.669H94.669v-4.149h9.5v4.149H98.74a.335.335,0,1,0,0,.669h5.767a.335.335,0,0,0,.335-.335v-4.818A.335.335,0,0,0,104.507,297Zm0,0" transform="translate(-90.854 -287.058)" fill="#828282"/>
  </g>
</svg>
