<svg xmlns="http://www.w3.org/2000/svg" width="40.09" height="33.261" viewBox="0 0 40.09 33.261">
  <g id="Group_27" data-name="Group 27" transform="translate(-1171 -663)">
    <g id="line_icons" data-name="line icons" transform="translate(1171 663)">
      <path id="Path_249" data-name="Path 249" d="M39.524,23.555h-5.5a.573.573,0,0,1,0-1.145h5.5a1.423,1.423,0,0,0,1.421-1.421V10.529a1.423,1.423,0,0,0-1.421-1.421H4.566a1.423,1.423,0,0,0-1.421,1.421v10.46A1.423,1.423,0,0,0,4.566,22.41h6.5a.573.573,0,0,1,0,1.145h-6.5A2.57,2.57,0,0,1,2,20.989V10.529A2.57,2.57,0,0,1,4.566,7.962H39.524a2.57,2.57,0,0,1,2.566,2.567v10.46A2.57,2.57,0,0,1,39.524,23.555Z" transform="translate(-2 -7.962)" fill="#fff"/>
      <path id="Path_250" data-name="Path 250" d="M40.321,22.653H37.544a.573.573,0,1,1,0-1.145h2.2V18.492H11.373v3.015h3.207a.573.573,0,1,1,0,1.145H10.8a.573.573,0,0,1-.573-.573V17.92a.573.573,0,0,1,.573-.573h29.52a.573.573,0,0,1,.573.573v4.161A.573.573,0,0,1,40.321,22.653Z" transform="translate(-5.516 -11.972)" fill="#fff"/>
      <path id="Path_251" data-name="Path 251" d="M38.295,45.233H19.476a2.647,2.647,0,0,1-2.644-2.644V17.92a.573.573,0,0,1,.573-.573H40.366a.573.573,0,0,1,.573.573V42.589a2.647,2.647,0,0,1-2.644,2.644ZM17.977,18.492v24.1a1.5,1.5,0,0,0,1.5,1.5H38.295a1.5,1.5,0,0,0,1.5-1.5v-24.1Z" transform="translate(-8.337 -11.972)" fill="#fff"/>
      <path id="Path_252" data-name="Path 252" d="M35.792,41.732H27.2a.573.573,0,0,1-.573-.573,3.115,3.115,0,0,0-3.112-3.111.573.573,0,0,1-.573-.573V17.92a.573.573,0,0,1,.573-.573h15.96a.573.573,0,0,1,.573.573V37.475a.573.573,0,0,1-.573.573,3.115,3.115,0,0,0-3.112,3.111A.573.573,0,0,1,35.792,41.732Zm-8.056-1.145h7.521A4.265,4.265,0,0,1,38.9,36.941V18.492H24.09V36.941a4.266,4.266,0,0,1,3.646,3.645Z" transform="translate(-10.949 -11.972)" fill="#fff"/>
      <path id="Path_253" data-name="Path 253" d="M33.59,34.913a5.748,5.748,0,1,1,5.748-5.748,5.748,5.748,0,0,1-5.748,5.748Zm0-10.35a4.6,4.6,0,1,0,4.6,4.6,4.6,4.6,0,0,0-4.6-4.6Z" transform="translate(-13.042 -14.566)" fill="#fff"/>
      <path id="Path_256" data-name="Path 256" d="M36.34,50.954A2.062,2.062,0,1,1,38.4,48.892,2.062,2.062,0,0,1,36.34,50.954Zm0-2.978a.916.916,0,1,0,.916.916.916.916,0,0,0-.916-.916Z" transform="translate(-15.792 -24.57)" fill="#fff"/>
      <text id="_" data-name="￥" transform="translate(17.048 17.736)" fill="#fff" font-size="7" font-family="YuGothicUI-Semibold, Yu Gothic UI" font-weight="600" letter-spacing="0.02em"><tspan x="0" y="0">￥</tspan></text>
    </g>
  </g>
</svg>
