<svg id="Component_54_2" data-name="Component 54 – 2" xmlns="http://www.w3.org/2000/svg" width="42" height="42" viewBox="0 0 42 42">
  <path id="Path_145" data-name="Path 145" d="M958.25,1165.57h0a21,21,0,0,1-21-21h0a21,21,0,0,1,21-21h0a21,21,0,0,1,21,21h0A21,21,0,0,1,958.25,1165.57Z" transform="translate(-937.25 -1123.57)" fill="#0e71eb"/>
  <g id="Group_195" data-name="Group 195" transform="translate(9.48 12.116)">
    <path id="Path_303" data-name="Path 303" d="M971.905,1145.532v.6a13.672,13.672,0,0,1-.868,4.735,14.113,14.113,0,0,1-2.578,4.314,12.789,12.789,0,0,1-4.209,3.157,13.728,13.728,0,0,1-5.761,1.21,13.472,13.472,0,0,1-3.841-.552,13.067,13.067,0,0,1-3.42-1.552q.552.053,1.131.052a9.391,9.391,0,0,0,3.13-.526,9.808,9.808,0,0,0,2.736-1.473,4.724,4.724,0,0,1-2.736-.96,4.555,4.555,0,0,1-1.657-2.328,4.694,4.694,0,0,0,.868.079,4.881,4.881,0,0,0,1.236-.158,4.567,4.567,0,0,1-1.92-.881,4.691,4.691,0,0,1-1.355-1.658,4.924,4.924,0,0,1-.513-2.091v-.079a4.432,4.432,0,0,0,2.157.6,4.759,4.759,0,0,1-1.539-1.7,4.622,4.622,0,0,1-.566-2.249,4.7,4.7,0,0,1,.631-2.367,13.488,13.488,0,0,0,9.733,4.944,5.464,5.464,0,0,1-.105-1.078,4.6,4.6,0,0,1,.631-2.367,4.766,4.766,0,0,1,1.723-1.723,4.554,4.554,0,0,1,2.354-.644,4.682,4.682,0,0,1,3.446,1.5,9.186,9.186,0,0,0,3-1.157,4.576,4.576,0,0,1-.8,1.513,4.858,4.858,0,0,1-1.276,1.118,9.6,9.6,0,0,0,2.736-.763A9.891,9.891,0,0,1,971.905,1145.532Z" transform="translate(-951.23 -1140.849)" fill="#fff"/>
  </g>
</svg>
