<svg id="Group_11" data-name="Group 11" xmlns="http://www.w3.org/2000/svg" width="83.836" height="83.836" viewBox="0 0 83.836 83.836">
  <path id="Path_523" data-name="Path 523" d="M41.918,0A41.918,41.918,0,1,1,0,41.918,41.918,41.918,0,0,1,41.918,0Z" transform="translate(0 0)" fill="#4e4e4e"/>
  <circle id="Ellipse_17" data-name="Ellipse 17" cx="38.557" cy="38.557" r="38.557" transform="translate(6.722 3.896)" fill="#fff"/>
  <path id="Icon_awesome-exclamation" data-name="Icon awesome-exclamation" d="M12.375,30.375A5.625,5.625,0,1,1,6.75,24.75,5.631,5.631,0,0,1,12.375,30.375Zm-10.6-28.6L2.732,20.9a1.687,1.687,0,0,0,1.685,1.6H9.082a1.687,1.687,0,0,0,1.685-1.6l.956-19.125A1.688,1.688,0,0,0,10.039,0H3.461A1.688,1.688,0,0,0,1.776,1.772Z" transform="translate(38.529 24.453)" fill="#f03"/>
</svg>
